# Blender v2.92.0 OBJ File: ''
# www.blender.org
mtllib pyramid.mtl
o Cube
v 0.242518 0.326514 0.000000
v 1.000000 -1.000000 -1.000000
v 1.000000 -1.000000 1.000000
v -1.000000 -1.000000 0.000000
vt 0.375000 0.750000
vt 0.625000 1.000000
vt 0.375000 1.000000
vt 0.125000 0.500000
vt 0.375000 0.500000
vt 0.625000 0.750000
vt 0.375000 0.250000
vt 0.625000 0.500000
vn -0.4125 0.3864 0.8250
vn 0.0000 -1.0000 0.0000
vn 0.8684 0.4959 0.0000
vn -0.4125 0.3864 -0.8250
usemtl Material
s off
f 3/1/1 1/2/1 4/3/1
f 4/4/2 2/5/2 3/1/2
f 2/5/3 1/6/3 3/1/3
f 4/7/4 1/8/4 2/5/4
